<?xml version="1.0" standalone="no"?>
<!DOCTYPE svg PUBLIC "-//W3C//DTD SVG 20010904//EN"
 "http://www.w3.org/TR/2001/REC-SVG-20010904/DTD/svg10.dtd">
<svg version="1.0" xmlns="http://www.w3.org/2000/svg"
 width="749.000000pt" height="749.000000pt" viewBox="0 0 749.000000 749.000000"
 preserveAspectRatio="xMidYMid meet">
<metadata>
Created by potrace 1.11, written by Peter Selinger 2001-2013
</metadata>
<g transform="translate(0.000000,749.000000) scale(0.100000,-0.100000)"
fill="#000000" stroke="none">
<path d="M3754 7269 c-16 -4 -112 -36 -214 -72 -102 -36 -277 -97 -390 -136
-113 -38 -338 -116 -500 -171 -162 -56 -351 -121 -420 -145 -274 -95 -1109
-382 -1340 -461 -135 -46 -281 -97 -324 -112 l-80 -28 -4 -234 c-2 -129 -4
-1205 -5 -2390 l-2 -2155 215 -73 c118 -41 440 -152 715 -247 275 -95 613
-212 750 -260 138 -47 358 -123 490 -169 132 -46 373 -130 535 -186 162 -56
364 -126 448 -155 l154 -54 116 39 c130 44 760 258 1032 352 96 33 209 71 250
85 41 14 147 50 235 80 411 141 1376 470 1510 516 83 27 152 51 153 53 2 1 6
1082 8 2401 l3 2398 -372 127 c-205 69 -511 174 -682 233 -170 59 -386 133
-480 165 -93 32 -303 104 -465 160 -515 178 -897 308 -1211 413 -67 22 -106
30 -125 26z"/>
</g>
</svg>
